<?xml version="1.0" encoding="iso-8859-1"?>
<!-- Generator: Adobe Illustrator 19.0.0, SVG Export Plug-In . SVG Version: 6.00 Build 0)  -->
<svg version="1.1" id="Capa_1" xmlns="http://www.w3.org/2000/svg" xmlns:xlink="http://www.w3.org/1999/xlink" x="0px" y="0px"
	 viewBox="0 0 512 512" style="enable-background:new 0 0 512 512;" xml:space="preserve">
<g>
	<g>
		<path d="M125.035,227.285c-4.165-4.164-10.917-4.164-15.083,0l-53.493,53.483l15.083,15.083l45.952-45.941l66.965,66.965
			l15.083-15.083L125.035,227.285z"/>
	</g>
</g>
<g>
	<g>
		<path d="M220.661,216.672c-0.003-0.003-0.006-0.006-0.008-0.008c-4.168-4.163-10.922-4.16-15.085,0.008l-31.776,31.787
			l15.083,15.083l24.235-24.235l35.349,35.339l15.083-15.083L220.661,216.672z"/>
	</g>
</g>
<g>
	<g>
		<path d="M458.667,0H53.333C23.893,0.035,0.035,23.893,0,53.333v405.333C0.035,488.107,23.893,511.965,53.333,512h256v-21.333h-256
			c-17.673,0-32-14.327-32-32V53.333c0-17.673,14.327-32,32-32h405.333c17.673,0,32,14.327,32,32v405.333c0,17.673-14.327,32-32,32
			h-21.333V512h21.333c29.441-0.035,53.298-23.893,53.333-53.333V53.333C511.965,23.893,488.107,0.035,458.667,0z"/>
	</g>
</g>
<g>
	<g>
		<rect x="42.667" y="85.333" width="426.667" height="21.333"/>
	</g>
</g>
<g>
	<g>
		<rect x="53.333" y="42.667" width="21.333" height="21.333"/>
	</g>
</g>
<g>
	<g>
		<rect x="96" y="42.667" width="21.333" height="21.333"/>
	</g>
</g>
<g>
	<g>
		<rect x="437.333" y="42.667" width="21.333" height="21.333"/>
	</g>
</g>
<g>
	<g>
		<path d="M435.755,431.68l-53.333-85.333c-0.736-1.046-1.647-1.958-2.693-2.693c-5.007-3.52-11.92-2.314-15.44,2.693
			l-53.333,85.333c-1.06,1.695-1.621,3.654-1.621,5.653c0,5.891,4.776,10.667,10.667,10.667h21.333v53.333
			c0,5.891,4.776,10.667,10.667,10.667h42.667c5.891,0,10.667-4.776,10.667-10.667V448h21.333c2.014,0.008,3.989-0.554,5.696-1.621
			C437.358,443.256,438.877,436.676,435.755,431.68z M394.667,426.667c-5.891,0-10.667,4.776-10.667,10.667v53.333h-21.333v-53.333
			c0-5.891-4.776-10.667-10.667-10.667h-12.747l34.08-54.539l34.133,54.539H394.667z"/>
	</g>
</g>
<g>
	<g>
		<path d="M245.333,138.667H74.667c-11.782,0-21.333,9.551-21.333,21.333v170.667c0,11.782,9.551,21.333,21.333,21.333h170.667
			c11.782,0,21.333-9.551,21.333-21.333V160C266.667,148.218,257.115,138.667,245.333,138.667z M245.333,330.667H74.667V160h170.667
			V330.667z"/>
	</g>
</g>
<g>
	<g>
		<path d="M437.333,298.667h-128C297.551,298.667,288,308.218,288,320v42.667c0,11.782,9.551,21.333,21.333,21.333H320v-21.333
			h-10.667V320h128v42.667h-10.667V384h10.667c11.782,0,21.333-9.551,21.333-21.333V320
			C458.667,308.218,449.115,298.667,437.333,298.667z"/>
	</g>
</g>
<g>
	<g>
		<rect x="149.333" y="384" width="21.333" height="53.333"/>
	</g>
</g>
<g>
	<g>
		<path d="M437.333,138.667h-128c-5.891,0-10.667,4.776-10.667,10.667V192H320v-32h106.667v32H448v-42.667
			C448,143.442,443.224,138.667,437.333,138.667z"/>
	</g>
</g>
<g>
	<g>
		<rect x="298.667" y="213.333" width="21.333" height="21.333"/>
	</g>
</g>
<g>
	<g>
		<rect x="341.333" y="213.333" width="106.667" height="21.333"/>
	</g>
</g>
<g>
	<g>
		<rect x="298.667" y="256" width="149.333" height="21.333"/>
	</g>
</g>
<g>
	<g>
		<path d="M245.333,384v42.667H74.667V384H53.333v42.667c0,11.782,9.551,21.333,21.333,21.333h170.667
			c11.782,0,21.333-9.551,21.333-21.333V384H245.333z"/>
	</g>
</g>
<g>
</g>
<g>
</g>
<g>
</g>
<g>
</g>
<g>
</g>
<g>
</g>
<g>
</g>
<g>
</g>
<g>
</g>
<g>
</g>
<g>
</g>
<g>
</g>
<g>
</g>
<g>
</g>
<g>
</g>
</svg>
